PathFileType	4	(X/Y/Z)	T1_P2_NoVision_Movement_0_0-734.trc
DataRate	CameraRate	NumFrames	NumMarkers	Units	OrigDataRate	OrigDataStartFrame	OrigNumFrames
60	60	4	27	m	60	550	734
Frame#	Time	RHip			RKnee			RAnkle			RBigToe			RSmallToe			RHeel			LHip			LKnee			LAnkle			LBigToe			LSmallToe			LHeel			Neck			Head			Nose			RShoulder			RElbow			RWrist			RThumb			RIndex			RPinky			LShoulder			LElbow			LWrist			LThumb			LIndex			LPinky		
		X1	Y1	Z1	X2	Y2	Z2	X3	Y3	Z3	X4	Y4	Z4	X5	Y5	Z5	X6	Y6	Z6	X7	Y7	Z7	X8	Y8	Z8	X9	Y9	Z9	X10	Y10	Z10	X11	Y11	Z11	X12	Y12	Z12	X13	Y13	Z13	X14	Y14	Z14	X15	Y15	Z15	X16	Y16	Z16	X17	Y17	Z17	X18	Y18	Z18	X19	Y19	Z19	X20	Y20	Z20	X21	Y21	Z21	X22	Y22	Z22	X23	Y23	Z23	X24	Y24	Z24	X25	Y25	Z25	X26	Y26	Z26	X27	Y27	Z27
551	9.183333333333334	461.13567589906967	3644.527359847051	547.8728385893136	880.9386428910996	3733.160969754297	601.9923109798652	1229.5520082739872	3699.117344010457	614.2397662511714	1319.5166816499238	3602.6191842164735	612.2425738607117	1310.5783763677562	3649.972862680733	560.5931280726464	1272.2370212556805	3697.3905776885513	635.5613232453771	463.7171801516247	3510.792731543309	736.824794754537	871.7056804833524	3545.241790239701	748.8802574055306	1231.3837740038252	3608.843398594048	750.9593319183393	1325.2571908621642	3556.8577299274425	689.4910852621553	1280.0628146050092	3475.6246637692107	721.7858924219327	1270.9884478123208	3618.0861323913828	735.695428215853	-108.15998926713894	3514.765985450751	634.7473427448895	-364.29490111509017	3498.98722032802	626.003609083031	-223.86120794811083	3411.057123076749	579.5027562111395	-32.232874468876375	3616.3042289326327	521.3914439288418	175.50065238635892	3713.663431599701	439.6332264763756	167.70610565313666	3512.563316460143	407.68461979772053	137.24811623917319	3398.6465075790816	454.13550499715683	158.72319371666856	3388.0424671125174	443.03583167518644	191.78163837271288	3367.134249967551	420.55054746770946	-13.869153840626053	3528.6175606816078	825.3810992069137	232.91021661938166	3448.499170835526	848.1527154800617	485.3270663226016	3430.230865734584	829.4754959536394	589.9363598588329	3413.330654370342	796.1244360755186	600.7931888320904	3402.024575004194	808.4864203172	600.5570737776757	3380.9588004299376	834.1038865724929
552	9.2	452.300812397856	3648.010980750079	549.4968098941508	887.0246295685516	3737.785278203915	603.4280519299833	1229.379969492062	3698.910642782653	614.108711500621	1319.2041225847079	3628.6996884766213	613.9987031893901	1310.8208038602572	3650.553989037484	560.8827078387013	1271.957507851187	3696.9139158036573	635.2273091565453	458.9707898020759	3509.399667889	735.7685560262681	871.8058768595375	3545.3620679388105	748.9810344255611	1224.4150375373313	3602.215119483726	753.8654176058512	1332.2948491330305	3568.9282571869994	706.8741228810628	1280.2132219155576	3476.0123778737075	721.9685527005654	1272.7286111871415	3612.6146344288313	732.7519491889276	-112.77390681367865	3519.151277875783	637.0207677787909	-368.284705394107	3497.8281674512227	625.7409673260855	-223.86434051266744	3411.293920003445	579.595887014066	-32.229742572617404	3616.3441452369034	521.4208953387046	175.2402801616298	3713.526550562996	439.42439314351327	167.7648843178097	3510.845589032039	411.8751133312636	136.9391057528198	3399.6329206193614	454.26162935754866	158.22842930872216	3388.1513780070845	447.773741196362	191.60952174372576	3366.8140887127865	420.5716558267913	-13.521421565268591	3549.964274580507	832.2925084194802	232.85985443216106	3448.4894047792095	848.1083231108222	485.2226347208137	3430.3524409475294	829.5804910978077	585.9937076065529	3412.84304561483	795.5041461547743	596.3573688438838	3401.170333917344	807.7909228850835	596.5385178038032	3364.5579632205176	825.0588283572083
553	9.216666666666667	462.5247253467595	3654.027923028383	551.9821722207132	887.1204404624582	3737.952730182495	603.485612700796	1235.4761308765987	3703.1988849465615	614.983489735718	1323.453538493966	3613.349718509601	610.9480098709473	1310.726872258285	3650.1831669988355	560.5860216705016	1275.7913130838824	3706.6529757981352	638.9627754812551	463.78528945538596	3510.7313658553144	736.7813633271645	877.6999729653936	3549.5713004600393	750.0807363271578	1224.3102825521928	3591.2113785205624	741.3581012305281	1324.4370638576663	3552.696744998051	693.1946537361572	1279.969198811418	3475.3202332103942	721.8046728811984	1271.2839137025726	3618.465474822389	735.6739362345795	-112.72042003756711	3538.2844977632867	642.4589586784701	-368.36609719348417	3498.037902749798	625.9095617490681	-224.3753124237128	3430.7225471081174	585.1801589422627	-31.91752353381714	3637.178415234773	526.2846065866449	175.38590476687867	3714.0773567612314	439.8049646584506	167.84917747037625	3510.9002707512695	412.0242794383208	143.70807231815814	3416.171336968502	467.8107630905607	158.44056378270042	3387.928402472292	447.8760038887259	191.58687581802548	3366.580163627112	420.4864243628015	-13.52989448698165	3550.042061026457	832.2879318916159	228.7247591847861	3452.6058397424817	850.78575457006	485.2496876098705	3430.376977105721	829.5305261075625	589.290286789445	3425.5985136336244	807.9054156284885	596.4188614222392	3402.1911942530805	808.1828868712535	604.5304511661576	3401.178888182451	841.257167970188
554	9.233333333333333	466.5779355969927	3648.989425521962	549.3250467578366	887.0194637099638	3737.732474800658	603.3255894151969	1235.6268579002588	3703.3307303349907	614.9717933191205	1326.9974957312975	3625.1910582543132	612.7446222590353	1310.9634750107298	3650.452395635437	560.6479748194918	1278.5512624203254	3704.157217192796	631.8799439726635	463.81682239423395	3510.906964559389	736.8620394314927	877.6464113501254	3549.4969803256863	750.0014164690317	1224.131597525697	3590.898095937314	740.7314553586216	1338.2321552140236	3572.0317509729043	707.4650528314401	1280.0395883290355	3475.2264019351614	721.6837016611282	1270.9787973352807	3618.2352061768584	735.328032290309	-108.04996646668368	3514.9795009998284	634.8150632365341	-364.3286770359144	3499.2577409513437	626.2429820177167	-223.74690870765568	3411.388465545799	579.6157383113533	-27.731246965905477	3620.0065772304797	522.7756466835106	169.85764523991645	3709.6020090919574	438.22689828367976	171.7583046125429	3505.5742442736696	414.4737431231573	139.15594423174497	3414.61776794319	467.0467413569551	158.66044803930717	3387.628874558062	447.8020787838926	191.79610341867132	3365.4692292895757	424.3999119232424	-13.53024957946613	3549.963171858848	832.2206995213785	224.3041634997903	3451.2966322121824	849.903667793341	480.83834039744767	3428.9559922058575	828.4781451569761	585.8551077613486	3413.4931916709547	795.6292417002245	600.7237834143585	3403.270992890643	809.1042715341646	596.814810819313	3367.9462980180615	821.1715995350182
